<mxfile host="app.diagrams.net" modified="2021-02-15T17:51:33.183Z" agent="5.0 (X11)" etag="o-cerFluYHjplXbvEQnR" version="14.3.1" type="github">
  <diagram id="3hPxVYJImWLscZgYbSC4" name="Page-1">
    <mxGraphModel dx="1350" dy="748" grid="1" gridSize="10" guides="1" tooltips="1" connect="1" arrows="1" fold="1" page="1" pageScale="1" pageWidth="850" pageHeight="1100" math="0" shadow="0">
      <root>
        <mxCell id="0" />
        <mxCell id="1" parent="0" />
        <mxCell id="DC02iXN6waR2BpefgzYk-56" value="" style="rounded=1;whiteSpace=wrap;html=1;fontSize=13;" vertex="1" parent="1">
          <mxGeometry x="425" y="140" width="385" height="640" as="geometry" />
        </mxCell>
        <mxCell id="DC02iXN6waR2BpefgzYk-57" value="" style="rounded=1;whiteSpace=wrap;html=1;fontSize=13;" vertex="1" parent="1">
          <mxGeometry x="45" y="140" width="370" height="640" as="geometry" />
        </mxCell>
        <mxCell id="DC02iXN6waR2BpefgzYk-1" value="Client" style="rounded=0;whiteSpace=wrap;html=1;fontSize=13;" vertex="1" parent="1">
          <mxGeometry x="64" y="180" width="120" height="60" as="geometry" />
        </mxCell>
        <mxCell id="DC02iXN6waR2BpefgzYk-2" value="Server" style="rounded=0;whiteSpace=wrap;html=1;fontSize=13;" vertex="1" parent="1">
          <mxGeometry x="665" y="180" width="120" height="60" as="geometry" />
        </mxCell>
        <mxCell id="DC02iXN6waR2BpefgzYk-3" value="" style="endArrow=none;dashed=1;html=1;entryX=0.5;entryY=1;entryDx=0;entryDy=0;fontSize=13;" edge="1" parent="1" target="DC02iXN6waR2BpefgzYk-1">
          <mxGeometry width="50" height="50" relative="1" as="geometry">
            <mxPoint x="150" y="280" as="sourcePoint" />
            <mxPoint x="360" y="360" as="targetPoint" />
          </mxGeometry>
        </mxCell>
        <mxCell id="DC02iXN6waR2BpefgzYk-4" value="" style="rounded=0;whiteSpace=wrap;html=1;fontSize=13;" vertex="1" parent="1">
          <mxGeometry x="140" y="310" width="20" height="80" as="geometry" />
        </mxCell>
        <mxCell id="DC02iXN6waR2BpefgzYk-5" value="" style="rounded=0;whiteSpace=wrap;html=1;fontSize=13;" vertex="1" parent="1">
          <mxGeometry x="510" y="310" width="20" height="80" as="geometry" />
        </mxCell>
        <mxCell id="DC02iXN6waR2BpefgzYk-6" value="" style="rounded=0;whiteSpace=wrap;html=1;fontSize=13;" vertex="1" parent="1">
          <mxGeometry x="140" y="430" width="20" height="80" as="geometry" />
        </mxCell>
        <mxCell id="DC02iXN6waR2BpefgzYk-7" value="" style="rounded=0;whiteSpace=wrap;html=1;fontSize=13;" vertex="1" parent="1">
          <mxGeometry x="580" y="430" width="20" height="80" as="geometry" />
        </mxCell>
        <mxCell id="DC02iXN6waR2BpefgzYk-9" value="" style="endArrow=none;dashed=1;html=1;entryX=0.5;entryY=1;entryDx=0;entryDy=0;fontSize=13;exitX=0.5;exitY=0;exitDx=0;exitDy=0;" edge="1" parent="1" source="DC02iXN6waR2BpefgzYk-5">
          <mxGeometry width="50" height="50" relative="1" as="geometry">
            <mxPoint x="684.5" y="270" as="sourcePoint" />
            <mxPoint x="684.5" y="240" as="targetPoint" />
          </mxGeometry>
        </mxCell>
        <mxCell id="DC02iXN6waR2BpefgzYk-12" value="" style="endArrow=none;dashed=1;html=1;entryX=0.5;entryY=1;entryDx=0;entryDy=0;exitX=0.5;exitY=0;exitDx=0;exitDy=0;fontSize=13;" edge="1" parent="1" source="DC02iXN6waR2BpefgzYk-6" target="DC02iXN6waR2BpefgzYk-4">
          <mxGeometry width="50" height="50" relative="1" as="geometry">
            <mxPoint x="160" y="320" as="sourcePoint" />
            <mxPoint x="160" y="290" as="targetPoint" />
          </mxGeometry>
        </mxCell>
        <mxCell id="DC02iXN6waR2BpefgzYk-13" value="" style="endArrow=none;dashed=1;html=1;entryX=0.5;entryY=1;entryDx=0;entryDy=0;fontSize=13;" edge="1" parent="1" target="DC02iXN6waR2BpefgzYk-6">
          <mxGeometry width="50" height="50" relative="1" as="geometry">
            <mxPoint x="149.5" y="570" as="sourcePoint" />
            <mxPoint x="149.5" y="530" as="targetPoint" />
          </mxGeometry>
        </mxCell>
        <mxCell id="DC02iXN6waR2BpefgzYk-14" value="" style="endArrow=none;dashed=1;html=1;entryX=0.5;entryY=1;entryDx=0;entryDy=0;fontSize=13;" edge="1" parent="1" source="DC02iXN6waR2BpefgzYk-25" target="DC02iXN6waR2BpefgzYk-5">
          <mxGeometry width="50" height="50" relative="1" as="geometry">
            <mxPoint x="520" y="570" as="sourcePoint" />
            <mxPoint x="250" y="520" as="targetPoint" />
          </mxGeometry>
        </mxCell>
        <mxCell id="DC02iXN6waR2BpefgzYk-15" value="" style="endArrow=none;dashed=1;html=1;entryX=0.75;entryY=1;entryDx=0;entryDy=0;exitX=0.5;exitY=0;exitDx=0;exitDy=0;fontSize=13;" edge="1" parent="1" source="DC02iXN6waR2BpefgzYk-7" target="DC02iXN6waR2BpefgzYk-2">
          <mxGeometry width="50" height="50" relative="1" as="geometry">
            <mxPoint x="755" y="380" as="sourcePoint" />
            <mxPoint x="695" y="360" as="targetPoint" />
          </mxGeometry>
        </mxCell>
        <mxCell id="DC02iXN6waR2BpefgzYk-17" value="" style="endArrow=classic;html=1;entryX=0;entryY=0.25;entryDx=0;entryDy=0;fontSize=13;exitX=1;exitY=0.25;exitDx=0;exitDy=0;" edge="1" parent="1" source="DC02iXN6waR2BpefgzYk-4" target="DC02iXN6waR2BpefgzYk-5">
          <mxGeometry width="50" height="50" relative="1" as="geometry">
            <mxPoint x="251" y="330" as="sourcePoint" />
            <mxPoint x="450" y="400" as="targetPoint" />
          </mxGeometry>
        </mxCell>
        <mxCell id="DC02iXN6waR2BpefgzYk-18" value="" style="endArrow=classic;html=1;entryX=1;entryY=0.75;entryDx=0;entryDy=0;exitX=0;exitY=0.75;exitDx=0;exitDy=0;fontSize=13;" edge="1" parent="1" source="DC02iXN6waR2BpefgzYk-5" target="DC02iXN6waR2BpefgzYk-4">
          <mxGeometry width="50" height="50" relative="1" as="geometry">
            <mxPoint x="261" y="340" as="sourcePoint" />
            <mxPoint x="520" y="340" as="targetPoint" />
          </mxGeometry>
        </mxCell>
        <mxCell id="DC02iXN6waR2BpefgzYk-19" value="" style="endArrow=classic;html=1;exitX=1;exitY=0.25;exitDx=0;exitDy=0;entryX=0;entryY=0.25;entryDx=0;entryDy=0;fontSize=13;" edge="1" parent="1" source="DC02iXN6waR2BpefgzYk-6" target="DC02iXN6waR2BpefgzYk-7">
          <mxGeometry width="50" height="50" relative="1" as="geometry">
            <mxPoint x="400" y="450" as="sourcePoint" />
            <mxPoint x="450" y="400" as="targetPoint" />
          </mxGeometry>
        </mxCell>
        <mxCell id="DC02iXN6waR2BpefgzYk-20" value="" style="endArrow=classic;html=1;fontSize=13;" edge="1" parent="1">
          <mxGeometry width="50" height="50" relative="1" as="geometry">
            <mxPoint x="680" y="360" as="sourcePoint" />
            <mxPoint x="680" y="400" as="targetPoint" />
          </mxGeometry>
        </mxCell>
        <mxCell id="DC02iXN6waR2BpefgzYk-21" value="Time" style="text;html=1;strokeColor=none;fillColor=none;align=center;verticalAlign=middle;whiteSpace=wrap;rounded=0;fontSize=13;" vertex="1" parent="1">
          <mxGeometry x="680" y="370" width="40" height="20" as="geometry" />
        </mxCell>
        <mxCell id="DC02iXN6waR2BpefgzYk-22" value="GetEndpoints()" style="text;html=1;strokeColor=none;fillColor=none;align=center;verticalAlign=middle;whiteSpace=wrap;rounded=0;fontSize=13;" vertex="1" parent="1">
          <mxGeometry x="300" y="310" width="110" height="20" as="geometry" />
        </mxCell>
        <mxCell id="DC02iXN6waR2BpefgzYk-23" value="EndpointDescription[]" style="text;html=1;strokeColor=none;fillColor=none;align=center;verticalAlign=middle;whiteSpace=wrap;rounded=0;fontSize=13;" vertex="1" parent="1">
          <mxGeometry x="310" y="350" width="115" height="20" as="geometry" />
        </mxCell>
        <mxCell id="DC02iXN6waR2BpefgzYk-24" value="CreateSecureChannel()" style="text;html=1;strokeColor=none;fillColor=none;align=center;verticalAlign=middle;whiteSpace=wrap;rounded=0;fontSize=13;" vertex="1" parent="1">
          <mxGeometry x="315" y="430" width="115" height="20" as="geometry" />
        </mxCell>
        <mxCell id="DC02iXN6waR2BpefgzYk-25" value="DiscoveryEndpoint" style="text;html=1;strokeColor=none;fillColor=none;align=center;verticalAlign=middle;whiteSpace=wrap;rounded=0;fontSize=13;" vertex="1" parent="1">
          <mxGeometry x="460" y="570" width="115" height="20" as="geometry" />
        </mxCell>
        <mxCell id="DC02iXN6waR2BpefgzYk-26" value="SessionEndpoint" style="text;html=1;strokeColor=none;fillColor=none;align=center;verticalAlign=middle;whiteSpace=wrap;rounded=0;fontSize=13;" vertex="1" parent="1">
          <mxGeometry x="580" y="570" width="115" height="20" as="geometry" />
        </mxCell>
        <mxCell id="DC02iXN6waR2BpefgzYk-29" value="" style="endArrow=none;dashed=1;html=1;fontSize=13;exitX=0.5;exitY=0;exitDx=0;exitDy=0;" edge="1" parent="1" source="DC02iXN6waR2BpefgzYk-45">
          <mxGeometry width="50" height="50" relative="1" as="geometry">
            <mxPoint x="150" y="310" as="sourcePoint" />
            <mxPoint x="149.5" y="280" as="targetPoint" />
          </mxGeometry>
        </mxCell>
        <mxCell id="DC02iXN6waR2BpefgzYk-39" value="Local Discovery Server" style="rounded=0;whiteSpace=wrap;html=1;fontSize=13;" vertex="1" parent="1">
          <mxGeometry x="465" y="180" width="120" height="60" as="geometry" />
        </mxCell>
        <mxCell id="DC02iXN6waR2BpefgzYk-40" value="" style="endArrow=none;dashed=1;html=1;entryX=0.5;entryY=1;entryDx=0;entryDy=0;fontSize=13;exitX=0.5;exitY=0;exitDx=0;exitDy=0;" edge="1" parent="1" source="DC02iXN6waR2BpefgzYk-41" target="DC02iXN6waR2BpefgzYk-39">
          <mxGeometry width="50" height="50" relative="1" as="geometry">
            <mxPoint x="505" y="280" as="sourcePoint" />
            <mxPoint x="335" y="250" as="targetPoint" />
          </mxGeometry>
        </mxCell>
        <mxCell id="DC02iXN6waR2BpefgzYk-41" value="" style="rounded=0;whiteSpace=wrap;html=1;fontSize=13;" vertex="1" parent="1">
          <mxGeometry x="515" y="280" width="20" height="30" as="geometry" />
        </mxCell>
        <mxCell id="DC02iXN6waR2BpefgzYk-42" value="" style="rounded=0;whiteSpace=wrap;html=1;fontSize=13;" vertex="1" parent="1">
          <mxGeometry x="515" y="340" width="20" height="80" as="geometry" />
        </mxCell>
        <mxCell id="DC02iXN6waR2BpefgzYk-43" value="" style="endArrow=none;dashed=1;html=1;entryX=0.5;entryY=1;entryDx=0;entryDy=0;fontSize=13;exitX=0.5;exitY=0;exitDx=0;exitDy=0;" edge="1" parent="1" source="DC02iXN6waR2BpefgzYk-42" target="DC02iXN6waR2BpefgzYk-41">
          <mxGeometry width="50" height="50" relative="1" as="geometry">
            <mxPoint x="505" y="340" as="sourcePoint" />
            <mxPoint x="504.5" y="310" as="targetPoint" />
          </mxGeometry>
        </mxCell>
        <mxCell id="DC02iXN6waR2BpefgzYk-44" value="" style="rounded=0;whiteSpace=wrap;html=1;fontSize=13;" vertex="1" parent="1">
          <mxGeometry x="315" y="340" width="20" height="140" as="geometry" />
        </mxCell>
        <mxCell id="DC02iXN6waR2BpefgzYk-45" value="" style="rounded=0;whiteSpace=wrap;html=1;fontSize=13;" vertex="1" parent="1">
          <mxGeometry x="114" y="390" width="20" height="80" as="geometry" />
        </mxCell>
        <mxCell id="DC02iXN6waR2BpefgzYk-46" value="" style="endArrow=none;dashed=1;html=1;fontSize=13;exitX=0.5;exitY=0;exitDx=0;exitDy=0;" edge="1" parent="1" source="DC02iXN6waR2BpefgzYk-4" target="DC02iXN6waR2BpefgzYk-45">
          <mxGeometry width="50" height="50" relative="1" as="geometry">
            <mxPoint x="124" y="520" as="sourcePoint" />
            <mxPoint x="124" y="280" as="targetPoint" />
          </mxGeometry>
        </mxCell>
        <mxCell id="DC02iXN6waR2BpefgzYk-47" value="" style="endArrow=classic;html=1;fontSize=13;entryX=1;entryY=0.5;entryDx=0;entryDy=0;" edge="1" parent="1" target="DC02iXN6waR2BpefgzYk-41">
          <mxGeometry width="50" height="50" relative="1" as="geometry">
            <mxPoint x="685" y="295" as="sourcePoint" />
            <mxPoint x="445" y="530" as="targetPoint" />
          </mxGeometry>
        </mxCell>
        <mxCell id="DC02iXN6waR2BpefgzYk-48" value="" style="endArrow=classic;html=1;fontSize=13;entryX=1;entryY=0.5;entryDx=0;entryDy=0;exitX=0;exitY=0.5;exitDx=0;exitDy=0;" edge="1" parent="1" source="DC02iXN6waR2BpefgzYk-42">
          <mxGeometry width="50" height="50" relative="1" as="geometry">
            <mxPoint x="485" y="380" as="sourcePoint" />
            <mxPoint x="335" y="380" as="targetPoint" />
          </mxGeometry>
        </mxCell>
        <mxCell id="DC02iXN6waR2BpefgzYk-49" value="" style="endArrow=classic;html=1;fontSize=13;entryX=-0.05;entryY=0.125;entryDx=0;entryDy=0;entryPerimeter=0;" edge="1" parent="1" target="DC02iXN6waR2BpefgzYk-42">
          <mxGeometry width="50" height="50" relative="1" as="geometry">
            <mxPoint x="335" y="350" as="sourcePoint" />
            <mxPoint x="495" y="350" as="targetPoint" />
          </mxGeometry>
        </mxCell>
        <mxCell id="DC02iXN6waR2BpefgzYk-50" value="" style="endArrow=classic;html=1;fontSize=13;exitX=1;exitY=0.5;exitDx=0;exitDy=0;entryX=-0.25;entryY=0.65;entryDx=0;entryDy=0;entryPerimeter=0;" edge="1" parent="1" source="DC02iXN6waR2BpefgzYk-45" target="DC02iXN6waR2BpefgzYk-44">
          <mxGeometry width="50" height="50" relative="1" as="geometry">
            <mxPoint x="375" y="580" as="sourcePoint" />
            <mxPoint x="425" y="530" as="targetPoint" />
          </mxGeometry>
        </mxCell>
        <mxCell id="DC02iXN6waR2BpefgzYk-51" value="" style="endArrow=none;html=1;fontSize=13;exitX=1.05;exitY=0.65;exitDx=0;exitDy=0;exitPerimeter=0;" edge="1" parent="1" source="DC02iXN6waR2BpefgzYk-44">
          <mxGeometry width="50" height="50" relative="1" as="geometry">
            <mxPoint x="345" y="440" as="sourcePoint" />
            <mxPoint x="375" y="430" as="targetPoint" />
          </mxGeometry>
        </mxCell>
        <mxCell id="DC02iXN6waR2BpefgzYk-52" value="" style="endArrow=none;html=1;fontSize=13;" edge="1" parent="1">
          <mxGeometry width="50" height="50" relative="1" as="geometry">
            <mxPoint x="375" y="460" as="sourcePoint" />
            <mxPoint x="375" y="430" as="targetPoint" />
          </mxGeometry>
        </mxCell>
        <mxCell id="DC02iXN6waR2BpefgzYk-53" value="" style="endArrow=classic;html=1;fontSize=13;entryX=1.1;entryY=0.85;entryDx=0;entryDy=0;entryPerimeter=0;" edge="1" parent="1" target="DC02iXN6waR2BpefgzYk-44">
          <mxGeometry width="50" height="50" relative="1" as="geometry">
            <mxPoint x="375" y="460" as="sourcePoint" />
            <mxPoint x="425" y="530" as="targetPoint" />
          </mxGeometry>
        </mxCell>
        <mxCell id="DC02iXN6waR2BpefgzYk-54" value="" style="endArrow=classic;html=1;fontSize=13;entryX=1.1;entryY=0.9;entryDx=0;entryDy=0;entryPerimeter=0;exitX=0;exitY=0.871;exitDx=0;exitDy=0;exitPerimeter=0;" edge="1" parent="1" source="DC02iXN6waR2BpefgzYk-44" target="DC02iXN6waR2BpefgzYk-45">
          <mxGeometry width="50" height="50" relative="1" as="geometry">
            <mxPoint x="305" y="462" as="sourcePoint" />
            <mxPoint x="425" y="530" as="targetPoint" />
          </mxGeometry>
        </mxCell>
        <mxCell id="DC02iXN6waR2BpefgzYk-58" value="Machine A" style="text;html=1;strokeColor=none;fillColor=none;align=center;verticalAlign=middle;whiteSpace=wrap;rounded=0;fontSize=13;" vertex="1" parent="1">
          <mxGeometry x="184" y="150" width="81" height="20" as="geometry" />
        </mxCell>
        <mxCell id="DC02iXN6waR2BpefgzYk-59" value="Machine B" style="text;html=1;strokeColor=none;fillColor=none;align=center;verticalAlign=middle;whiteSpace=wrap;rounded=0;fontSize=13;" vertex="1" parent="1">
          <mxGeometry x="593" y="150" width="81" height="20" as="geometry" />
        </mxCell>
        <mxCell id="DC02iXN6waR2BpefgzYk-60" value="" style="endArrow=none;dashed=1;html=1;entryX=0.5;entryY=1;entryDx=0;entryDy=0;fontSize=13;exitX=0.5;exitY=0;exitDx=0;exitDy=0;" edge="1" parent="1" source="DC02iXN6waR2BpefgzYk-26" target="DC02iXN6waR2BpefgzYk-7">
          <mxGeometry width="50" height="50" relative="1" as="geometry">
            <mxPoint x="134" y="760" as="sourcePoint" />
            <mxPoint x="134" y="730" as="targetPoint" />
          </mxGeometry>
        </mxCell>
        <mxCell id="DC02iXN6waR2BpefgzYk-61" value="Register Server 2" style="text;html=1;strokeColor=none;fillColor=none;align=center;verticalAlign=middle;whiteSpace=wrap;rounded=0;fontSize=13;" vertex="1" parent="1">
          <mxGeometry x="550" y="270" width="110" height="20" as="geometry" />
        </mxCell>
        <mxCell id="DC02iXN6waR2BpefgzYk-62" value="or Register Server " style="text;html=1;strokeColor=none;fillColor=none;align=center;verticalAlign=middle;whiteSpace=wrap;rounded=0;fontSize=13;" vertex="1" parent="1">
          <mxGeometry x="550" y="300" width="110" height="20" as="geometry" />
        </mxCell>
        <mxCell id="DC02iXN6waR2BpefgzYk-63" value="Multicast Probe" style="text;html=1;strokeColor=none;fillColor=none;align=center;verticalAlign=middle;whiteSpace=wrap;rounded=0;fontSize=13;" vertex="1" parent="1">
          <mxGeometry x="350" y="330" width="140" height="20" as="geometry" />
        </mxCell>
        <mxCell id="DC02iXN6waR2BpefgzYk-64" value="Multicast Announce" style="text;html=1;strokeColor=none;fillColor=none;align=center;verticalAlign=middle;whiteSpace=wrap;rounded=0;fontSize=13;" vertex="1" parent="1">
          <mxGeometry x="350" y="380" width="160" height="20" as="geometry" />
        </mxCell>
        <mxCell id="DC02iXN6waR2BpefgzYk-65" value="Lookup Cache" style="text;html=1;strokeColor=none;fillColor=none;align=center;verticalAlign=middle;whiteSpace=wrap;rounded=0;fontSize=13;" vertex="1" parent="1">
          <mxGeometry x="335" y="470" width="60" height="30" as="geometry" />
        </mxCell>
        <mxCell id="DC02iXN6waR2BpefgzYk-66" value="FindServersOnNetwork()" style="text;html=1;strokeColor=none;fillColor=none;align=center;verticalAlign=middle;whiteSpace=wrap;rounded=0;fontSize=13;" vertex="1" parent="1">
          <mxGeometry x="174" y="410" width="110" height="20" as="geometry" />
        </mxCell>
        <mxCell id="DC02iXN6waR2BpefgzYk-67" value="DiscoveryURLs[]" style="text;html=1;strokeColor=none;fillColor=none;align=center;verticalAlign=middle;whiteSpace=wrap;rounded=0;fontSize=13;" vertex="1" parent="1">
          <mxGeometry x="175" y="440" width="110" height="20" as="geometry" />
        </mxCell>
      </root>
    </mxGraphModel>
  </diagram>
</mxfile>
